STARTFONT 2.1
COMMENT
COMMENT Converted from OpenType font "Context_Ultra_Condensed.ttf" by "otf2bdf 3.0".
COMMENT
FONT -FreeType-Context Ultra Condensed SSi-Medium-R-Normal--25-180-100-100-P-75-ISO10646-1
SIZE 18 100 100
FONTBOUNDINGBOX 29 28 -4 -5
STARTPROPERTIES 19
FOUNDRY "FreeType"
FAMILY_NAME "Context Ultra Condensed SSi"
WEIGHT_NAME "Medium"
SLANT "R"
SETWIDTH_NAME "Normal"
ADD_STYLE_NAME ""
PIXEL_SIZE 25
POINT_SIZE 180
RESOLUTION_X 100
RESOLUTION_Y 100
SPACING "P"
AVERAGE_WIDTH 75
CHARSET_REGISTRY "ISO10646"
CHARSET_ENCODING "1"
FONT_ASCENT 18
FONT_DESCENT 3
COPYRIGHT "Copyright c 1992 Southern Software, Inc. All Rights Reserved"
_OTF_FONTFILE "Context_Ultra_Condensed.ttf"
_OTF_PSNAME "ContextUltraCondensedSSiUltraCondensed"
ENDPROPERTIES
CHARS 230
STARTCHAR 0020
ENCODING 32
SWIDTH 160 0
DWIDTH 4 0
BBX 0 0 0 0
BITMAP
ENDCHAR
STARTCHAR 0021
ENCODING 33
SWIDTH 200 0
DWIDTH 5 0
BBX 3 18 1 0
BITMAP
E0
E0
E0
E0
E0
E0
E0
E0
E0
E0
E0
E0
E0
E0
E0
00
E0
E0
ENDCHAR
STARTCHAR 0022
ENCODING 34
SWIDTH 320 0
DWIDTH 8 0
BBX 6 7 1 11
BITMAP
CC
CC
CC
CC
CC
CC
CC
ENDCHAR
STARTCHAR 0023
ENCODING 35
SWIDTH 320 0
DWIDTH 8 0
BBX 10 18 -1 0
BITMAP
1980
1980
1980
1980
1980
7FC0
7FC0
3100
3100
3300
3300
FFC0
FFC0
3300
2300
2200
6200
6600
ENDCHAR
STARTCHAR 0024
ENCODING 36
SWIDTH 320 0
DWIDTH 8 0
BBX 7 20 1 -1
BITMAP
10
78
FC
CE
CE
CE
EE
E0
70
78
3C
1C
DE
CE
CE
CE
CE
FC
7C
30
ENDCHAR
STARTCHAR 0025
ENCODING 37
SWIDTH 520 0
DWIDTH 13 0
BBX 12 18 0 0
BITMAP
78C0
7880
CC80
CD80
CD00
CD00
CF00
CE00
FEE0
7BF0
05B0
05B0
05B0
09B0
09B0
09B0
19F0
10E0
ENDCHAR
STARTCHAR 0026
ENCODING 38
SWIDTH 400 0
DWIDTH 10 0
BBX 9 18 1 0
BITMAP
3C00
7E00
EE00
EE00
EE00
EE00
7C00
7800
7000
F300
DB00
DB00
DB00
CF00
CF00
E700
FF80
3F80
ENDCHAR
STARTCHAR 0027
ENCODING 39
SWIDTH 240 0
DWIDTH 6 0
BBX 2 7 2 11
BITMAP
C0
C0
C0
C0
C0
C0
C0
ENDCHAR
STARTCHAR 0028
ENCODING 40
SWIDTH 160 0
DWIDTH 4 0
BBX 5 20 0 -2
BITMAP
38
30
70
60
60
60
60
E0
E0
E0
E0
E0
E0
60
60
60
60
70
30
38
ENDCHAR
STARTCHAR 0029
ENCODING 41
SWIDTH 160 0
DWIDTH 4 0
BBX 5 20 -1 -2
BITMAP
60
60
70
30
30
30
38
18
18
18
18
18
18
38
38
30
30
30
60
E0
ENDCHAR
STARTCHAR 002A
ENCODING 42
SWIDTH 320 0
DWIDTH 8 0
BBX 8 7 0 11
BITMAP
18
9A
FF
38
3C
64
46
ENDCHAR
STARTCHAR 002B
ENCODING 43
SWIDTH 520 0
DWIDTH 13 0
BBX 12 12 0 1
BITMAP
0600
0600
0600
0600
0600
FFF0
FFF0
0600
0600
0600
0600
0600
ENDCHAR
STARTCHAR 002C
ENCODING 44
SWIDTH 160 0
DWIDTH 4 0
BBX 4 6 0 -3
BITMAP
70
60
60
60
40
C0
ENDCHAR
STARTCHAR 002D
ENCODING 45
SWIDTH 160 0
DWIDTH 4 0
BBX 3 2 1 7
BITMAP
E0
E0
ENDCHAR
STARTCHAR 002E
ENCODING 46
SWIDTH 160 0
DWIDTH 4 0
BBX 2 2 1 0
BITMAP
C0
C0
ENDCHAR
STARTCHAR 002F
ENCODING 47
SWIDTH 280 0
DWIDTH 7 0
BBX 7 18 0 0
BITMAP
02
06
04
04
0C
08
08
18
10
10
30
20
20
60
40
40
C0
80
ENDCHAR
STARTCHAR 0030
ENCODING 48
SWIDTH 320 0
DWIDTH 8 0
BBX 7 18 1 0
BITMAP
78
FC
CE
CE
CE
CE
CE
CE
CE
CE
CE
CE
CE
CE
CE
CE
FC
78
ENDCHAR
STARTCHAR 0031
ENCODING 49
SWIDTH 320 0
DWIDTH 8 0
BBX 5 18 1 0
BITMAP
18
38
F8
F8
38
38
38
38
38
38
38
38
38
38
38
38
38
38
ENDCHAR
STARTCHAR 0032
ENCODING 50
SWIDTH 320 0
DWIDTH 8 0
BBX 7 18 1 0
BITMAP
78
FC
EC
CE
CE
CE
CC
1C
1C
38
38
70
70
E0
E0
E0
FE
FE
ENDCHAR
STARTCHAR 0033
ENCODING 51
SWIDTH 320 0
DWIDTH 8 0
BBX 7 18 1 0
BITMAP
78
FC
CE
CE
CE
CE
CE
0C
3C
3C
0C
CE
CE
CE
CE
CE
FC
78
ENDCHAR
STARTCHAR 0034
ENCODING 52
SWIDTH 320 0
DWIDTH 8 0
BBX 8 18 0 0
BITMAP
1E
1E
1E
36
36
36
76
66
66
66
E6
FF
FF
06
06
06
06
06
ENDCHAR
STARTCHAR 0035
ENCODING 53
SWIDTH 320 0
DWIDTH 8 0
BBX 7 18 1 0
BITMAP
FC
FC
C0
C0
C0
C0
C0
DC
FC
CE
0E
CE
CE
CE
CE
CE
FC
78
ENDCHAR
STARTCHAR 0036
ENCODING 54
SWIDTH 320 0
DWIDTH 8 0
BBX 7 18 1 0
BITMAP
78
FC
CE
CE
CE
CE
C0
DC
FC
CE
CE
CE
CE
CE
CE
CE
FC
78
ENDCHAR
STARTCHAR 0037
ENCODING 55
SWIDTH 320 0
DWIDTH 8 0
BBX 7 18 1 0
BITMAP
FE
FE
0E
0E
0C
1C
1C
1C
18
38
38
38
30
70
70
70
60
E0
ENDCHAR
STARTCHAR 0038
ENCODING 56
SWIDTH 320 0
DWIDTH 8 0
BBX 7 18 1 0
BITMAP
78
FC
CC
CE
CE
CE
CE
CC
FC
7C
CE
CE
CE
CE
CE
CE
FC
78
ENDCHAR
STARTCHAR 0039
ENCODING 57
SWIDTH 320 0
DWIDTH 8 0
BBX 7 18 1 0
BITMAP
78
FC
CE
CE
CE
CE
CE
CE
CE
CE
FE
7E
0E
CE
CE
CE
FC
78
ENDCHAR
STARTCHAR 003A
ENCODING 58
SWIDTH 160 0
DWIDTH 4 0
BBX 2 13 1 0
BITMAP
C0
C0
00
00
00
00
00
00
00
00
00
C0
C0
ENDCHAR
STARTCHAR 003B
ENCODING 59
SWIDTH 160 0
DWIDTH 4 0
BBX 4 16 0 -3
BITMAP
60
60
00
00
00
00
00
00
00
00
70
60
60
40
C0
C0
ENDCHAR
STARTCHAR 003C
ENCODING 60
SWIDTH 520 0
DWIDTH 13 0
BBX 11 11 1 2
BITMAP
0020
00E0
07C0
1E00
7800
E000
F000
3C00
0F00
03E0
0060
ENDCHAR
STARTCHAR 003D
ENCODING 61
SWIDTH 520 0
DWIDTH 13 0
BBX 12 7 0 4
BITMAP
FFF0
FFF0
0000
0000
0000
FFF0
FFF0
ENDCHAR
STARTCHAR 003E
ENCODING 62
SWIDTH 520 0
DWIDTH 13 0
BBX 11 11 1 1
BITMAP
8000
E000
7800
1E00
07C0
00E0
01E0
0F80
3C00
F000
C000
ENDCHAR
STARTCHAR 003F
ENCODING 63
SWIDTH 320 0
DWIDTH 8 0
BBX 6 18 1 0
BITMAP
78
FC
EC
EC
EC
EC
EC
1C
18
38
38
30
30
30
30
00
30
30
ENDCHAR
STARTCHAR 0040
ENCODING 64
SWIDTH 800 0
DWIDTH 20 0
BBX 18 18 1 0
BITMAP
03F000
0FFE00
1E0F00
380380
71E580
63FCC0
E71CC0
CE1CC0
CC18C0
CC18C0
CC1980
EE3900
67FE00
739C00
380380
1E0F00
0FFC00
03F000
ENDCHAR
STARTCHAR 0041
ENCODING 65
SWIDTH 320 0
DWIDTH 8 0
BBX 8 18 0 0
BITMAP
3C
3C
3C
3E
3E
3E
7E
76
76
76
66
7E
7F
67
67
E7
E7
E7
ENDCHAR
STARTCHAR 0042
ENCODING 66
SWIDTH 320 0
DWIDTH 8 0
BBX 7 18 1 0
BITMAP
F8
FC
CC
CE
CE
CE
CE
CC
F8
FC
CC
CE
CE
CE
CE
CE
FC
F8
ENDCHAR
STARTCHAR 0043
ENCODING 67
SWIDTH 320 0
DWIDTH 8 0
BBX 7 18 1 0
BITMAP
78
FC
CE
CE
CE
CE
CE
C0
C0
C0
C0
CE
CE
CE
CE
CE
FC
78
ENDCHAR
STARTCHAR 0044
ENCODING 68
SWIDTH 320 0
DWIDTH 8 0
BBX 7 18 1 0
BITMAP
F8
FC
CC
CE
CE
CE
CE
CE
CE
CE
CE
CE
CE
CE
CE
CE
FC
F8
ENDCHAR
STARTCHAR 0045
ENCODING 69
SWIDTH 280 0
DWIDTH 7 0
BBX 6 18 1 0
BITMAP
FC
FC
C0
C0
C0
C0
C0
FC
FC
C0
C0
C0
C0
C0
C0
C0
FC
FC
ENDCHAR
STARTCHAR 0046
ENCODING 70
SWIDTH 280 0
DWIDTH 7 0
BBX 6 18 1 0
BITMAP
FC
FC
C0
C0
C0
C0
C0
FC
FC
C0
C0
C0
C0
C0
C0
C0
C0
C0
ENDCHAR
STARTCHAR 0047
ENCODING 71
SWIDTH 320 0
DWIDTH 8 0
BBX 7 18 1 0
BITMAP
78
FC
CE
CE
CE
CE
CE
C0
C0
DE
DE
CE
CE
CE
CE
CE
FE
76
ENDCHAR
STARTCHAR 0048
ENCODING 72
SWIDTH 320 0
DWIDTH 8 0
BBX 7 18 1 0
BITMAP
CE
CE
CE
CE
CE
CE
CE
FE
FE
CE
CE
CE
CE
CE
CE
CE
CE
CE
ENDCHAR
STARTCHAR 0049
ENCODING 73
SWIDTH 160 0
DWIDTH 4 0
BBX 2 18 1 0
BITMAP
C0
C0
C0
C0
C0
C0
C0
C0
C0
C0
C0
C0
C0
C0
C0
C0
C0
C0
ENDCHAR
STARTCHAR 004A
ENCODING 74
SWIDTH 320 0
DWIDTH 8 0
BBX 7 18 1 0
BITMAP
0E
0E
0E
0E
0E
0E
0E
0E
0E
0E
0E
CE
CE
CE
CE
CE
FC
78
ENDCHAR
STARTCHAR 004B
ENCODING 75
SWIDTH 320 0
DWIDTH 8 0
BBX 7 18 1 0
BITMAP
CE
CE
CE
CC
DC
DC
DC
D8
F8
D8
DC
DC
DC
DC
CC
CE
CE
CE
ENDCHAR
STARTCHAR 004C
ENCODING 76
SWIDTH 280 0
DWIDTH 7 0
BBX 6 18 1 0
BITMAP
C0
C0
C0
C0
C0
C0
C0
C0
C0
C0
C0
C0
C0
C0
C0
C0
FC
FC
ENDCHAR
STARTCHAR 004D
ENCODING 77
SWIDTH 480 0
DWIDTH 12 0
BBX 10 18 1 0
BITMAP
F3C0
F3C0
F3C0
F3C0
F3C0
F3C0
DBC0
DEC0
DEC0
DEC0
DEC0
DEC0
DEC0
DEC0
DEC0
CEC0
CCC0
CCC0
ENDCHAR
STARTCHAR 004E
ENCODING 78
SWIDTH 400 0
DWIDTH 10 0
BBX 8 18 1 0
BITMAP
F3
F3
F3
F3
F3
FB
FB
DB
DB
DB
DB
DB
DB
DF
CF
CF
CF
CF
ENDCHAR
STARTCHAR 004F
ENCODING 79
SWIDTH 320 0
DWIDTH 8 0
BBX 7 18 1 0
BITMAP
78
FC
CE
CE
CE
CE
CE
CE
CE
CE
CE
CE
CE
CE
CE
CE
FC
78
ENDCHAR
STARTCHAR 0050
ENCODING 80
SWIDTH 320 0
DWIDTH 8 0
BBX 7 18 1 0
BITMAP
F8
FC
CE
CE
CE
CE
CE
CE
CE
FC
F8
C0
C0
C0
C0
C0
C0
C0
ENDCHAR
STARTCHAR 0051
ENCODING 81
SWIDTH 320 0
DWIDTH 8 0
BBX 7 20 1 -2
BITMAP
78
FC
CE
CE
CE
CE
CE
CE
CE
CE
CE
CE
CE
CE
CE
CE
FC
78
0E
0E
ENDCHAR
STARTCHAR 0052
ENCODING 82
SWIDTH 320 0
DWIDTH 8 0
BBX 7 18 1 0
BITMAP
F8
FC
CE
CE
CE
CE
CE
CC
F8
FC
CC
CE
CE
CE
CE
CE
CE
CE
ENDCHAR
STARTCHAR 0053
ENCODING 83
SWIDTH 320 0
DWIDTH 8 0
BBX 7 18 1 0
BITMAP
78
FC
CE
CE
CE
CE
EE
F0
78
38
1C
DE
CE
CE
CE
CE
FC
78
ENDCHAR
STARTCHAR 0054
ENCODING 84
SWIDTH 320 0
DWIDTH 8 0
BBX 8 18 0 0
BITMAP
FF
FF
18
18
18
18
18
18
18
18
18
18
18
18
18
18
18
18
ENDCHAR
STARTCHAR 0055
ENCODING 85
SWIDTH 320 0
DWIDTH 8 0
BBX 7 18 1 0
BITMAP
CE
CE
CE
CE
CE
CE
CE
CE
CE
CE
CE
CE
CE
CE
CE
CE
FC
78
ENDCHAR
STARTCHAR 0056
ENCODING 86
SWIDTH 320 0
DWIDTH 8 0
BBX 8 18 0 0
BITMAP
E7
E7
E7
E7
67
67
66
76
76
76
76
7E
7E
3E
3E
3C
3C
3C
ENDCHAR
STARTCHAR 0057
ENCODING 87
SWIDTH 480 0
DWIDTH 12 0
BBX 12 18 0 0
BITMAP
E730
E770
E770
6F60
6F60
6F60
6F60
7F60
7F60
7D60
7D60
7D60
7D60
79C0
39C0
39C0
39C0
39C0
ENDCHAR
STARTCHAR 0058
ENCODING 88
SWIDTH 320 0
DWIDTH 8 0
BBX 8 18 0 0
BITMAP
E3
67
67
76
76
7E
3E
3C
3C
3C
3E
3E
7E
76
67
67
E7
E7
ENDCHAR
STARTCHAR 0059
ENCODING 89
SWIDTH 320 0
DWIDTH 8 0
BBX 8 18 0 0
BITMAP
E3
E7
67
76
76
76
3E
3C
3C
3C
1C
18
18
18
18
18
18
18
ENDCHAR
STARTCHAR 005A
ENCODING 90
SWIDTH 240 0
DWIDTH 6 0
BBX 6 18 0 0
BITMAP
FC
FC
1C
1C
1C
18
38
38
38
30
30
70
70
70
60
E0
FC
FC
ENDCHAR
STARTCHAR 005B
ENCODING 91
SWIDTH 240 0
DWIDTH 6 0
BBX 4 21 1 -3
BITMAP
F0
F0
C0
C0
C0
C0
C0
C0
C0
C0
C0
C0
C0
C0
C0
C0
C0
C0
C0
F0
F0
ENDCHAR
STARTCHAR 005C
ENCODING 92
SWIDTH 280 0
DWIDTH 7 0
BBX 9 18 -1 0
BITMAP
8000
C000
4000
6000
2000
3000
1000
1000
0800
0800
0C00
0400
0600
0200
0300
0100
0180
0080
ENDCHAR
STARTCHAR 005D
ENCODING 93
SWIDTH 240 0
DWIDTH 6 0
BBX 5 21 0 -3
BITMAP
F8
F8
18
18
18
18
18
18
18
18
18
18
18
18
18
18
18
18
18
F8
F8
ENDCHAR
STARTCHAR 005E
ENCODING 94
SWIDTH 520 0
DWIDTH 13 0
BBX 12 10 0 8
BITMAP
0700
0F00
0F80
1D80
1980
18C0
30C0
3060
6060
E030
ENDCHAR
STARTCHAR 005F
ENCODING 95
SWIDTH 520 0
DWIDTH 13 0
BBX 13 2 0 -3
BITMAP
FFF8
FFF8
ENDCHAR
STARTCHAR 0060
ENCODING 96
SWIDTH 160 0
DWIDTH 4 0
BBX 5 4 -1 16
BITMAP
E0
60
30
18
ENDCHAR
STARTCHAR 0061
ENCODING 97
SWIDTH 280 0
DWIDTH 7 0
BBX 5 14 1 0
BITMAP
70
F8
D8
D8
D8
38
F8
D8
D8
D8
D8
D8
F8
F8
ENDCHAR
STARTCHAR 0062
ENCODING 98
SWIDTH 280 0
DWIDTH 7 0
BBX 5 18 1 0
BITMAP
C0
C0
C0
C0
F8
D8
D8
D8
D8
D8
D8
D8
D8
D8
D8
D8
F8
F8
ENDCHAR
STARTCHAR 0063
ENCODING 99
SWIDTH 280 0
DWIDTH 7 0
BBX 5 14 1 0
BITMAP
70
F8
D8
D8
D8
C0
C0
C0
C0
D8
D8
D8
F8
F8
ENDCHAR
STARTCHAR 0064
ENCODING 100
SWIDTH 280 0
DWIDTH 7 0
BBX 5 18 1 0
BITMAP
18
18
18
18
F8
D8
D8
D8
D8
D8
D8
D8
D8
D8
D8
D8
F8
F8
ENDCHAR
STARTCHAR 0065
ENCODING 101
SWIDTH 280 0
DWIDTH 7 0
BBX 5 14 1 0
BITMAP
70
D8
D8
D8
D8
F8
F8
C0
C0
D8
D8
D8
F8
F8
ENDCHAR
STARTCHAR 0066
ENCODING 102
SWIDTH 160 0
DWIDTH 4 0
BBX 4 18 0 0
BITMAP
70
70
60
60
F0
60
60
60
60
60
60
60
60
60
60
60
60
60
ENDCHAR
STARTCHAR 0067
ENCODING 103
SWIDTH 280 0
DWIDTH 7 0
BBX 5 17 1 -3
BITMAP
F8
D8
D8
D8
D8
D8
D8
D8
D8
D8
F8
F8
18
D8
D8
F8
70
ENDCHAR
STARTCHAR 0068
ENCODING 104
SWIDTH 280 0
DWIDTH 7 0
BBX 5 18 1 0
BITMAP
C0
C0
C0
C0
F8
F8
D8
D8
D8
D8
D8
D8
D8
D8
D8
D8
D8
D8
ENDCHAR
STARTCHAR 0069
ENCODING 105
SWIDTH 160 0
DWIDTH 4 0
BBX 2 18 1 0
BITMAP
C0
C0
00
00
C0
C0
C0
C0
C0
C0
C0
C0
C0
C0
C0
C0
C0
C0
ENDCHAR
STARTCHAR 006A
ENCODING 106
SWIDTH 160 0
DWIDTH 4 0
BBX 3 21 0 -3
BITMAP
60
60
00
00
60
60
60
60
60
60
60
60
60
60
60
60
60
60
60
E0
C0
ENDCHAR
STARTCHAR 006B
ENCODING 107
SWIDTH 280 0
DWIDTH 7 0
BBX 6 18 1 0
BITMAP
C0
C0
C0
C0
DC
D8
D8
D8
F8
F8
F0
F8
F8
D8
D8
D8
DC
DC
ENDCHAR
STARTCHAR 006C
ENCODING 108
SWIDTH 160 0
DWIDTH 4 0
BBX 2 18 1 0
BITMAP
C0
C0
C0
C0
C0
C0
C0
C0
C0
C0
C0
C0
C0
C0
C0
C0
C0
C0
ENDCHAR
STARTCHAR 006D
ENCODING 109
SWIDTH 440 0
DWIDTH 11 0
BBX 9 14 1 0
BITMAP
DB80
FF80
DD80
DD80
DD80
DD80
DD80
DD80
DD80
DD80
DD80
DD80
DD80
DD80
ENDCHAR
STARTCHAR 006E
ENCODING 110
SWIDTH 280 0
DWIDTH 7 0
BBX 5 14 1 0
BITMAP
F8
F8
D8
D8
D8
D8
D8
D8
D8
D8
D8
D8
D8
D8
ENDCHAR
STARTCHAR 006F
ENCODING 111
SWIDTH 280 0
DWIDTH 7 0
BBX 5 14 1 0
BITMAP
70
D8
D8
D8
D8
D8
D8
D8
D8
D8
D8
D8
F8
F0
ENDCHAR
STARTCHAR 0070
ENCODING 112
SWIDTH 280 0
DWIDTH 7 0
BBX 5 17 1 -3
BITMAP
F8
D8
D8
D8
D8
D8
D8
D8
D8
D8
D8
D8
F8
F8
C0
C0
C0
ENDCHAR
STARTCHAR 0071
ENCODING 113
SWIDTH 280 0
DWIDTH 7 0
BBX 5 17 1 -3
BITMAP
F8
D8
D8
D8
D8
D8
D8
D8
D8
D8
D8
D8
F8
F8
18
18
18
ENDCHAR
STARTCHAR 0072
ENCODING 114
SWIDTH 280 0
DWIDTH 7 0
BBX 5 14 1 0
BITMAP
F8
F8
D8
D8
D8
D8
D8
C0
C0
C0
C0
C0
C0
C0
ENDCHAR
STARTCHAR 0073
ENCODING 115
SWIDTH 280 0
DWIDTH 7 0
BBX 5 14 1 0
BITMAP
70
F8
D8
D8
D8
E0
70
38
38
D8
D8
D8
F8
F0
ENDCHAR
STARTCHAR 0074
ENCODING 116
SWIDTH 160 0
DWIDTH 4 0
BBX 4 17 0 0
BITMAP
60
60
60
F0
60
60
60
60
60
60
60
60
60
60
60
70
70
ENDCHAR
STARTCHAR 0075
ENCODING 117
SWIDTH 280 0
DWIDTH 7 0
BBX 5 14 1 0
BITMAP
D8
D8
D8
D8
D8
D8
D8
D8
D8
D8
D8
D8
F8
F8
ENDCHAR
STARTCHAR 0076
ENCODING 118
SWIDTH 280 0
DWIDTH 7 0
BBX 7 14 0 0
BITMAP
EE
EE
EE
6C
6C
6C
6C
6C
6C
6C
78
38
38
38
ENDCHAR
STARTCHAR 0077
ENCODING 119
SWIDTH 440 0
DWIDTH 11 0
BBX 11 14 0 0
BITMAP
EEE0
EEE0
EEE0
EAE0
6AC0
6AC0
6AC0
6AC0
6BC0
7BC0
7BC0
7BC0
3B80
3980
ENDCHAR
STARTCHAR 0078
ENCODING 120
SWIDTH 240 0
DWIDTH 6 0
BBX 6 14 0 0
BITMAP
EC
6C
6C
7C
78
78
38
78
78
7C
7C
6C
EC
CC
ENDCHAR
STARTCHAR 0079
ENCODING 121
SWIDTH 280 0
DWIDTH 7 0
BBX 7 17 0 -3
BITMAP
EE
EE
EC
6C
6C
6C
6C
6C
6C
68
38
38
38
38
38
78
70
ENDCHAR
STARTCHAR 007A
ENCODING 122
SWIDTH 240 0
DWIDTH 6 0
BBX 5 14 0 0
BITMAP
F8
F8
18
38
38
30
30
70
60
60
E0
E0
F8
F8
ENDCHAR
STARTCHAR 007B
ENCODING 123
SWIDTH 320 0
DWIDTH 8 0
BBX 7 21 1 -3
BITMAP
1E
3E
38
30
30
30
30
30
30
70
C0
70
30
30
30
30
30
30
30
3E
1E
ENDCHAR
STARTCHAR 007C
ENCODING 124
SWIDTH 240 0
DWIDTH 6 0
BBX 2 18 2 0
BITMAP
C0
C0
C0
C0
C0
C0
C0
C0
C0
C0
C0
C0
C0
C0
C0
C0
C0
C0
ENDCHAR
STARTCHAR 007D
ENCODING 125
SWIDTH 320 0
DWIDTH 8 0
BBX 7 21 0 -3
BITMAP
F0
F8
18
18
18
18
18
18
1C
0C
06
0E
1C
18
18
18
18
18
18
F8
F0
ENDCHAR
STARTCHAR 007E
ENCODING 126
SWIDTH 520 0
DWIDTH 13 0
BBX 12 4 0 5
BITMAP
3820
7E30
C7E0
41C0
ENDCHAR
STARTCHAR 009D
ENCODING 157
SWIDTH 880 0
DWIDTH 22 0
BBX 23 18 0 0
BITMAP
003870
00FDF8
01C788
030E18
060C10
043866
0CE9C4
0D9A00
040800
060C10
020410
030630
61C220
C18340
818340
C386C0
FEFE80
3C7880
ENDCHAR
STARTCHAR 00A0
ENCODING 160
SWIDTH 760 0
DWIDTH 19 0
BBX 0 0 0 0
BITMAP
ENDCHAR
STARTCHAR 00A1
ENCODING 161
SWIDTH 200 0
DWIDTH 5 0
BBX 3 18 1 -3
BITMAP
E0
E0
00
00
E0
E0
E0
E0
E0
E0
E0
E0
E0
E0
E0
E0
E0
E0
ENDCHAR
STARTCHAR 00A2
ENCODING 162
SWIDTH 320 0
DWIDTH 8 0
BBX 6 18 1 -2
BITMAP
0C
08
7C
EC
EC
EC
EC
E0
E0
E0
E0
EC
EC
EC
FC
78
40
C0
ENDCHAR
STARTCHAR 00A3
ENCODING 163
SWIDTH 320 0
DWIDTH 8 0
BBX 8 18 0 0
BITMAP
3E
7F
67
67
60
70
70
70
7C
7C
30
30
30
30
70
60
FF
7F
ENDCHAR
STARTCHAR 00A4
ENCODING 164
SWIDTH 320 0
DWIDTH 8 0
BBX 7 6 1 7
BITMAP
FE
C4
86
86
C4
FE
ENDCHAR
STARTCHAR 00A5
ENCODING 165
SWIDTH 320 0
DWIDTH 8 0
BBX 8 18 0 0
BITMAP
E3
E7
67
76
76
76
3E
3C
FF
FF
7E
7E
18
18
18
18
18
18
ENDCHAR
STARTCHAR 00A6
ENCODING 166
SWIDTH 240 0
DWIDTH 6 0
BBX 2 18 2 0
BITMAP
C0
C0
C0
C0
C0
C0
C0
00
00
00
00
C0
C0
C0
C0
C0
C0
C0
ENDCHAR
STARTCHAR 00A7
ENCODING 167
SWIDTH 320 0
DWIDTH 8 0
BBX 7 21 1 -3
BITMAP
78
FC
CC
CC
C0
E0
70
F8
DC
CC
CE
EE
7C
7C
18
1C
0C
CC
CC
FC
78
ENDCHAR
STARTCHAR 00A8
ENCODING 168
SWIDTH 160 0
DWIDTH 4 0
BBX 6 2 -1 17
BITMAP
DC
DC
ENDCHAR
STARTCHAR 00A9
ENCODING 169
SWIDTH 800 0
DWIDTH 20 0
BBX 18 18 1 0
BITMAP
03F000
0FFC00
3C0F00
700780
61E180
E7F9C0
C718C0
CE0CC0
CC00C0
CC00C0
CC00C0
CE0CC0
E719C0
63F980
71E380
3C0F00
0FFC00
03F000
ENDCHAR
STARTCHAR 00AA
ENCODING 170
SWIDTH 160 0
DWIDTH 4 0
BBX 4 9 0 9
BITMAP
F0
F0
F0
70
D0
D0
D0
F0
80
ENDCHAR
STARTCHAR 00AB
ENCODING 171
SWIDTH 320 0
DWIDTH 8 0
BBX 8 11 0 2
BITMAP
11
11
33
77
EE
CC
CC
E6
77
33
11
ENDCHAR
STARTCHAR 00AC
ENCODING 172
SWIDTH 520 0
DWIDTH 13 0
BBX 12 7 0 4
BITMAP
FFF0
FFF0
0030
0030
0030
0030
0030
ENDCHAR
STARTCHAR 00AE
ENCODING 174
SWIDTH 800 0
DWIDTH 20 0
BBX 18 18 1 0
BITMAP
03F000
0FFC00
3C0F00
700780
67F180
E7F9C0
C618C0
C618C0
C7F8C0
C7F0C0
C660C0
C630C0
E611C0
661980
700380
3C0F00
0FFC00
03F000
ENDCHAR
STARTCHAR 00AF
ENCODING 175
SWIDTH 160 0
DWIDTH 4 0
BBX 6 2 -1 17
BITMAP
FC
FC
ENDCHAR
STARTCHAR 00B0
ENCODING 176
SWIDTH 400 0
DWIDTH 10 0
BBX 8 7 1 11
BITMAP
3C
66
42
C3
43
66
3C
ENDCHAR
STARTCHAR 00B1
ENCODING 177
SWIDTH 520 0
DWIDTH 13 0
BBX 12 12 0 1
BITMAP
0600
0600
0600
FFF0
FFF0
0600
0600
0600
0600
0000
FFF0
FFF0
ENDCHAR
STARTCHAR 00B2
ENCODING 178
SWIDTH 200 0
DWIDTH 5 0
BBX 5 11 0 7
BITMAP
70
D8
D8
D8
10
30
70
60
60
C0
F8
ENDCHAR
STARTCHAR 00B3
ENCODING 179
SWIDTH 200 0
DWIDTH 5 0
BBX 5 11 0 7
BITMAP
70
F8
D8
D8
18
30
18
D8
D8
D8
70
ENDCHAR
STARTCHAR 00B4
ENCODING 180
SWIDTH 160 0
DWIDTH 4 0
BBX 5 4 0 16
BITMAP
38
30
60
C0
ENDCHAR
STARTCHAR 00B5
ENCODING 181
SWIDTH 280 0
DWIDTH 7 0
BBX 5 17 1 -3
BITMAP
D8
D8
D8
D8
D8
D8
D8
D8
D8
D8
D8
D8
F8
F8
C0
C0
C0
ENDCHAR
STARTCHAR 00B6
ENCODING 182
SWIDTH 600 0
DWIDTH 15 0
BBX 13 23 1 -5
BITMAP
3FF8
7FF8
FE60
FE60
FE60
FE60
FE60
7E60
3E60
0660
0660
0660
0660
0660
0660
0660
0660
0660
0660
0660
0660
0660
0660
ENDCHAR
STARTCHAR 00B8
ENCODING 184
SWIDTH 160 0
DWIDTH 4 0
BBX 5 5 -1 -5
BITMAP
20
30
08
18
F8
ENDCHAR
STARTCHAR 00B9
ENCODING 185
SWIDTH 200 0
DWIDTH 5 0
BBX 3 11 0 7
BITMAP
20
E0
E0
20
20
20
20
20
20
20
20
ENDCHAR
STARTCHAR 00BA
ENCODING 186
SWIDTH 160 0
DWIDTH 4 0
BBX 4 9 0 9
BITMAP
70
F0
D0
D0
D0
D0
D0
F0
40
ENDCHAR
STARTCHAR 00BB
ENCODING 187
SWIDTH 320 0
DWIDTH 8 0
BBX 8 11 0 2
BITMAP
88
88
CC
E6
77
33
33
77
EE
CC
88
ENDCHAR
STARTCHAR 00BC
ENCODING 188
SWIDTH 480 0
DWIDTH 12 0
BBX 11 18 1 0
BITMAP
6100
E100
E300
6200
6200
6600
6400
64C0
6DC0
6940
6940
1B40
1340
1240
33E0
23E0
2040
6040
ENDCHAR
STARTCHAR 00BD
ENCODING 189
SWIDTH 480 0
DWIDTH 12 0
BBX 12 18 0 0
BITMAP
2080
E080
E100
2100
2100
2200
2200
22E0
26B0
24B0
24B0
0C30
0860
0840
18C0
1080
10F0
30F0
ENDCHAR
STARTCHAR 00BE
ENCODING 190
SWIDTH 480 0
DWIDTH 12 0
BBX 12 18 0 0
BITMAP
7040
F8C0
D880
D880
1980
3100
1900
DB60
DA60
5AE0
76A0
04A0
05A0
0DA0
09F0
09F0
0820
1020
ENDCHAR
STARTCHAR 00BF
ENCODING 191
SWIDTH 320 0
DWIDTH 8 0
BBX 6 18 1 -3
BITMAP
30
30
00
00
30
30
30
30
30
70
60
E0
EC
EC
EC
EC
FC
78
ENDCHAR
STARTCHAR 00C0
ENCODING 192
SWIDTH 320 0
DWIDTH 8 0
BBX 8 23 0 0
BITMAP
70
18
18
0C
00
3C
3C
3C
3E
3E
3E
7E
76
76
76
66
7E
7F
67
67
E7
E7
E7
ENDCHAR
STARTCHAR 00C1
ENCODING 193
SWIDTH 320 0
DWIDTH 8 0
BBX 8 23 0 0
BITMAP
0E
0C
18
10
20
3C
3C
3C
3E
3E
3E
7E
76
76
76
66
7E
7F
67
67
E7
E7
E7
ENDCHAR
STARTCHAR 00C2
ENCODING 194
SWIDTH 320 0
DWIDTH 8 0
BBX 8 23 0 0
BITMAP
1C
3C
26
62
00
3C
3C
3C
3E
3E
3E
7E
76
76
76
66
7E
7F
67
67
E7
E7
E7
ENDCHAR
STARTCHAR 00C3
ENCODING 195
SWIDTH 320 0
DWIDTH 8 0
BBX 8 23 0 0
BITMAP
01
3E
6C
00
00
3C
3C
3C
3E
3E
3E
7E
76
76
76
66
7E
7F
67
67
E7
E7
E7
ENDCHAR
STARTCHAR 00C4
ENCODING 196
SWIDTH 320 0
DWIDTH 8 0
BBX 8 22 0 0
BITMAP
76
76
00
00
3C
3C
3C
3E
3E
3E
7E
76
76
76
66
7E
7F
67
67
E7
E7
E7
ENDCHAR
STARTCHAR 00C5
ENCODING 197
SWIDTH 320 0
DWIDTH 8 0
BBX 8 23 0 0
BITMAP
1C
24
24
1C
00
3C
3C
3C
3E
3E
3E
7E
76
76
76
66
7E
7F
67
67
E7
E7
E7
ENDCHAR
STARTCHAR 00C6
ENCODING 198
SWIDTH 480 0
DWIDTH 12 0
BBX 12 18 0 0
BITMAP
0FF0
1FF0
1B00
1B00
1B00
1B00
3B00
3BF0
33F0
3300
3300
7F00
7F00
6300
6300
6300
E3F0
E3F0
ENDCHAR
STARTCHAR 00C7
ENCODING 199
SWIDTH 320 0
DWIDTH 8 0
BBX 7 23 1 -5
BITMAP
78
FC
CE
CE
CE
CE
CE
C0
C0
C0
C0
CE
CE
CE
CE
CE
FC
78
20
38
0C
0C
F8
ENDCHAR
STARTCHAR 00C8
ENCODING 200
SWIDTH 280 0
DWIDTH 7 0
BBX 7 23 0 0
BITMAP
E0
30
10
18
00
7E
7E
60
60
60
60
60
7E
7E
60
60
60
60
60
60
60
7E
7E
ENDCHAR
STARTCHAR 00C9
ENCODING 201
SWIDTH 280 0
DWIDTH 7 0
BBX 6 23 1 0
BITMAP
1C
30
20
60
00
FC
FC
C0
C0
C0
C0
C0
FC
FC
C0
C0
C0
C0
C0
C0
C0
FC
FC
ENDCHAR
STARTCHAR 00CA
ENCODING 202
SWIDTH 280 0
DWIDTH 7 0
BBX 7 23 0 0
BITMAP
38
28
6C
44
82
7E
7E
60
60
60
60
60
7E
7E
60
60
60
60
60
60
60
7E
7E
ENDCHAR
STARTCHAR 00CB
ENCODING 203
SWIDTH 280 0
DWIDTH 7 0
BBX 6 22 1 0
BITMAP
D8
D8
00
00
FC
FC
C0
C0
C0
C0
C0
FC
FC
C0
C0
C0
C0
C0
C0
C0
FC
FC
ENDCHAR
STARTCHAR 00CC
ENCODING 204
SWIDTH 160 0
DWIDTH 4 0
BBX 5 23 -1 0
BITMAP
E0
60
30
18
00
30
30
30
30
30
30
30
30
30
30
30
30
30
30
30
30
30
30
ENDCHAR
STARTCHAR 00CD
ENCODING 205
SWIDTH 160 0
DWIDTH 4 0
BBX 5 23 0 0
BITMAP
38
30
60
40
80
60
60
60
60
60
60
60
60
60
60
60
60
60
60
60
60
60
60
ENDCHAR
STARTCHAR 00CE
ENCODING 206
SWIDTH 160 0
DWIDTH 4 0
BBX 6 23 -1 0
BITMAP
38
78
4C
C4
00
30
30
30
30
30
30
30
30
30
30
30
30
30
30
30
30
30
30
ENDCHAR
STARTCHAR 00CF
ENCODING 207
SWIDTH 160 0
DWIDTH 4 0
BBX 6 22 -1 0
BITMAP
CC
CC
00
00
30
30
30
30
30
30
30
30
30
30
30
30
30
30
30
30
30
30
ENDCHAR
STARTCHAR 00D0
ENCODING 208
SWIDTH 320 0
DWIDTH 8 0
BBX 8 18 0 0
BITMAP
7C
7E
66
67
67
67
67
67
F7
F7
67
67
67
67
67
67
7E
7C
ENDCHAR
STARTCHAR 00D1
ENCODING 209
SWIDTH 400 0
DWIDTH 10 0
BBX 8 23 1 0
BITMAP
02
7E
5C
00
00
F3
F3
F3
F3
F3
FB
FB
DB
DB
DB
DB
DB
DB
DF
CF
CF
CF
CF
ENDCHAR
STARTCHAR 00D2
ENCODING 210
SWIDTH 320 0
DWIDTH 8 0
BBX 7 23 1 0
BITMAP
E0
60
30
10
08
78
FC
CE
CE
CE
CE
CE
CE
CE
CE
CE
CE
CE
CE
CE
CE
FC
78
ENDCHAR
STARTCHAR 00D3
ENCODING 211
SWIDTH 320 0
DWIDTH 8 0
BBX 7 23 1 0
BITMAP
1C
18
30
20
40
78
FC
CE
CE
CE
CE
CE
CE
CE
CE
CE
CE
CE
CE
CE
CE
FC
78
ENDCHAR
STARTCHAR 00D4
ENCODING 212
SWIDTH 320 0
DWIDTH 8 0
BBX 7 23 1 0
BITMAP
38
78
4C
C4
00
78
FC
CE
CE
CE
CE
CE
CE
CE
CE
CE
CE
CE
CE
CE
CE
FC
78
ENDCHAR
STARTCHAR 00D5
ENCODING 213
SWIDTH 320 0
DWIDTH 8 0
BBX 7 23 1 0
BITMAP
02
7C
FC
80
00
78
FC
CE
CE
CE
CE
CE
CE
CE
CE
CE
CE
CE
CE
CE
CE
FC
78
ENDCHAR
STARTCHAR 00D6
ENCODING 214
SWIDTH 320 0
DWIDTH 8 0
BBX 7 22 1 0
BITMAP
EC
EC
00
00
78
FC
CE
CE
CE
CE
CE
CE
CE
CE
CE
CE
CE
CE
CE
CE
FC
78
ENDCHAR
STARTCHAR 00D7
ENCODING 215
SWIDTH 520 0
DWIDTH 13 0
BBX 12 12 0 1
BITMAP
4020
E070
70E0
39E0
1FC0
0F80
0F00
1F80
3DC0
78E0
F070
6030
ENDCHAR
STARTCHAR 00D8
ENCODING 216
SWIDTH 320 0
DWIDTH 8 0
BBX 8 20 0 -1
BITMAP
01
3F
7F
67
67
67
67
6F
6F
6F
7F
77
77
77
67
67
67
7E
FC
C0
ENDCHAR
STARTCHAR 00D9
ENCODING 217
SWIDTH 320 0
DWIDTH 8 0
BBX 7 23 1 0
BITMAP
E0
30
30
18
00
CE
CE
CE
CE
CE
CE
CE
CE
CE
CE
CE
CE
CE
CE
CE
CE
FC
78
ENDCHAR
STARTCHAR 00DA
ENCODING 218
SWIDTH 320 0
DWIDTH 8 0
BBX 7 23 1 0
BITMAP
1C
18
30
20
40
CE
CE
CE
CE
CE
CE
CE
CE
CE
CE
CE
CE
CE
CE
CE
CE
FC
78
ENDCHAR
STARTCHAR 00DB
ENCODING 219
SWIDTH 320 0
DWIDTH 8 0
BBX 7 23 1 0
BITMAP
38
78
4C
C4
00
CE
CE
CE
CE
CE
CE
CE
CE
CE
CE
CE
CE
CE
CE
CE
CE
FC
78
ENDCHAR
STARTCHAR 00DC
ENCODING 220
SWIDTH 320 0
DWIDTH 8 0
BBX 7 22 1 0
BITMAP
EC
EC
00
00
CE
CE
CE
CE
CE
CE
CE
CE
CE
CE
CE
CE
CE
CE
CE
CE
FC
78
ENDCHAR
STARTCHAR 00DD
ENCODING 221
SWIDTH 320 0
DWIDTH 8 0
BBX 8 23 0 0
BITMAP
0E
0C
18
10
20
E3
E7
67
76
76
76
3E
3C
3C
3C
1C
18
18
18
18
18
18
18
ENDCHAR
STARTCHAR 00DE
ENCODING 222
SWIDTH 320 0
DWIDTH 8 0
BBX 7 18 1 0
BITMAP
C0
C0
C0
F8
FC
CE
CE
CE
CE
CE
CE
CE
FC
F8
C0
C0
C0
C0
ENDCHAR
STARTCHAR 00DF
ENCODING 223
SWIDTH 280 0
DWIDTH 7 0
BBX 6 18 1 0
BITMAP
70
F8
D8
D8
D8
D8
D8
F0
D8
DC
DC
DC
DC
DC
DC
DC
F8
F8
ENDCHAR
STARTCHAR 00E0
ENCODING 224
SWIDTH 280 0
DWIDTH 7 0
BBX 6 20 0 0
BITMAP
E0
30
30
18
08
00
38
7C
EC
EC
EC
1C
7C
EC
EC
EC
EC
EC
7C
7C
ENDCHAR
STARTCHAR 00E1
ENCODING 225
SWIDTH 280 0
DWIDTH 7 0
BBX 6 20 1 0
BITMAP
1C
30
30
60
40
00
70
F8
D8
D8
D8
38
F8
D8
D8
D8
D8
D8
F8
F8
ENDCHAR
STARTCHAR 00E2
ENCODING 226
SWIDTH 280 0
DWIDTH 7 0
BBX 7 20 0 0
BITMAP
38
28
6C
44
C6
00
38
7C
EC
EC
EC
1C
7C
EC
EC
EC
EC
EC
7C
7C
ENDCHAR
STARTCHAR 00E3
ENCODING 227
SWIDTH 280 0
DWIDTH 7 0
BBX 7 20 0 0
BITMAP
02
7E
7C
88
00
00
38
7C
EC
EC
EC
1C
7C
EC
EC
EC
EC
EC
7C
7C
ENDCHAR
STARTCHAR 00E4
ENCODING 228
SWIDTH 280 0
DWIDTH 7 0
BBX 5 19 1 0
BITMAP
D8
D8
00
00
00
70
F8
D8
D8
D8
38
F8
D8
D8
D8
D8
D8
F8
F8
ENDCHAR
STARTCHAR 00E5
ENCODING 229
SWIDTH 280 0
DWIDTH 7 0
BBX 5 20 1 0
BITMAP
70
D0
D8
70
00
00
70
F8
D8
D8
D8
38
F8
D8
D8
D8
D8
D8
F8
F8
ENDCHAR
STARTCHAR 00E6
ENCODING 230
SWIDTH 440 0
DWIDTH 11 0
BBX 9 14 1 0
BITMAP
7F00
FF80
DD80
DD80
DD80
3F80
FF80
DC00
DC00
DD80
DD80
DD80
FF80
EF00
ENDCHAR
STARTCHAR 00E7
ENCODING 231
SWIDTH 280 0
DWIDTH 7 0
BBX 5 19 1 -5
BITMAP
70
F8
D8
D8
D8
C0
C0
C0
C0
D8
D8
D8
F8
F8
20
70
18
18
F0
ENDCHAR
STARTCHAR 00E8
ENCODING 232
SWIDTH 280 0
DWIDTH 7 0
BBX 6 20 0 0
BITMAP
E0
30
10
18
00
00
38
6C
EC
EC
EC
FC
FC
E0
E0
EC
EC
EC
7C
7C
ENDCHAR
STARTCHAR 00E9
ENCODING 233
SWIDTH 280 0
DWIDTH 7 0
BBX 6 20 1 0
BITMAP
1C
30
20
60
00
00
70
D8
D8
D8
D8
F8
F8
C0
C0
D8
D8
D8
F8
F8
ENDCHAR
STARTCHAR 00EA
ENCODING 234
SWIDTH 280 0
DWIDTH 7 0
BBX 7 20 0 0
BITMAP
38
28
6C
44
82
00
38
6C
EC
EC
EC
FC
FC
E0
E0
EC
EC
EC
7C
7C
ENDCHAR
STARTCHAR 00EB
ENCODING 235
SWIDTH 280 0
DWIDTH 7 0
BBX 5 19 1 0
BITMAP
D8
D8
00
00
70
F8
D8
D8
D8
D8
F8
F8
C0
C0
D8
D8
D8
F8
78
ENDCHAR
STARTCHAR 00EC
ENCODING 236
SWIDTH 160 0
DWIDTH 4 0
BBX 5 20 -1 0
BITMAP
E0
60
30
10
08
00
30
30
30
30
30
30
30
30
30
30
30
30
30
30
ENDCHAR
STARTCHAR 00ED
ENCODING 237
SWIDTH 160 0
DWIDTH 4 0
BBX 5 20 0 0
BITMAP
38
30
60
C0
00
00
60
60
60
60
60
60
60
60
60
60
60
60
60
60
ENDCHAR
STARTCHAR 00EE
ENCODING 238
SWIDTH 160 0
DWIDTH 4 0
BBX 6 20 -1 0
BITMAP
70
78
C8
8C
00
00
30
30
30
30
30
30
30
30
30
30
30
30
30
30
ENDCHAR
STARTCHAR 00EF
ENCODING 239
SWIDTH 160 0
DWIDTH 4 0
BBX 6 19 -1 0
BITMAP
DC
DC
00
00
30
30
30
30
30
30
30
30
30
30
30
30
30
30
30
ENDCHAR
STARTCHAR 00F0
ENCODING 240
SWIDTH 280 0
DWIDTH 7 0
BBX 6 18 0 0
BITMAP
E0
78
38
38
7C
6C
EC
EC
EC
EC
EC
EC
EC
EC
EC
EC
7C
38
ENDCHAR
STARTCHAR 00F1
ENCODING 241
SWIDTH 280 0
DWIDTH 7 0
BBX 7 20 0 0
BITMAP
02
7E
7C
88
00
00
FC
FC
EC
EC
EC
EC
EC
EC
EC
EC
EC
EC
EC
EC
ENDCHAR
STARTCHAR 00F2
ENCODING 242
SWIDTH 280 0
DWIDTH 7 0
BBX 6 20 0 0
BITMAP
E0
30
10
18
00
00
38
6C
EC
EC
EC
EC
EC
EC
EC
EC
EC
EC
7C
78
ENDCHAR
STARTCHAR 00F3
ENCODING 243
SWIDTH 280 0
DWIDTH 7 0
BBX 6 20 1 0
BITMAP
1C
30
20
60
00
00
70
D8
D8
D8
D8
D8
D8
D8
D8
D8
D8
D8
F8
F0
ENDCHAR
STARTCHAR 00F4
ENCODING 244
SWIDTH 280 0
DWIDTH 7 0
BBX 7 20 0 0
BITMAP
38
28
6C
44
82
00
38
6C
EC
EC
EC
EC
EC
EC
EC
EC
EC
EC
7C
78
ENDCHAR
STARTCHAR 00F5
ENCODING 245
SWIDTH 280 0
DWIDTH 7 0
BBX 7 20 0 0
BITMAP
02
7E
DC
00
00
00
38
6C
EC
EC
EC
EC
EC
EC
EC
EC
EC
EC
7C
78
ENDCHAR
STARTCHAR 00F6
ENCODING 246
SWIDTH 280 0
DWIDTH 7 0
BBX 5 19 1 0
BITMAP
D8
D8
00
00
70
F8
D8
D8
D8
D8
D8
D8
D8
D8
D8
D8
D8
F8
70
ENDCHAR
STARTCHAR 00F7
ENCODING 247
SWIDTH 520 0
DWIDTH 13 0
BBX 12 14 0 0
BITMAP
0700
0F00
0F00
0700
0000
0000
FFF0
FFF0
0000
0000
0700
0F00
0F00
0700
ENDCHAR
STARTCHAR 00F8
ENCODING 248
SWIDTH 280 0
DWIDTH 7 0
BBX 7 16 0 -1
BITMAP
06
3C
6C
EC
EC
EC
FC
FC
FC
FC
EC
EC
EC
7C
78
80
ENDCHAR
STARTCHAR 00F9
ENCODING 249
SWIDTH 280 0
DWIDTH 7 0
BBX 6 20 0 0
BITMAP
E0
30
10
18
00
00
EC
EC
EC
EC
EC
EC
EC
EC
EC
EC
EC
EC
7C
7C
ENDCHAR
STARTCHAR 00FA
ENCODING 250
SWIDTH 280 0
DWIDTH 7 0
BBX 6 20 1 0
BITMAP
1C
30
20
60
00
00
D8
D8
D8
D8
D8
D8
D8
D8
D8
D8
D8
D8
F8
F8
ENDCHAR
STARTCHAR 00FB
ENCODING 251
SWIDTH 280 0
DWIDTH 7 0
BBX 7 20 0 0
BITMAP
38
28
6C
44
82
00
EC
EC
EC
EC
EC
EC
EC
EC
EC
EC
EC
EC
7C
7C
ENDCHAR
STARTCHAR 00FC
ENCODING 252
SWIDTH 280 0
DWIDTH 7 0
BBX 5 19 1 0
BITMAP
D8
D8
00
00
D8
D8
D8
D8
D8
D8
D8
D8
D8
D8
D8
D8
D8
F8
F8
ENDCHAR
STARTCHAR 00FD
ENCODING 253
SWIDTH 280 0
DWIDTH 7 0
BBX 7 23 0 -3
BITMAP
0E
18
10
30
00
00
EE
EE
EC
6C
6C
6C
6C
6C
6C
68
38
38
38
38
38
78
70
ENDCHAR
STARTCHAR 00FE
ENCODING 254
SWIDTH 280 0
DWIDTH 7 0
BBX 5 21 1 -3
BITMAP
C0
C0
C0
C0
F8
D8
D8
D8
D8
D8
D8
D8
D8
D8
D8
D8
F8
F8
C0
C0
C0
ENDCHAR
STARTCHAR 00FF
ENCODING 255
SWIDTH 280 0
DWIDTH 7 0
BBX 7 22 0 -3
BITMAP
6C
6C
00
00
EE
EE
EE
6C
6C
6C
6C
6C
6C
6C
28
38
38
38
38
38
78
70
ENDCHAR
STARTCHAR 0131
ENCODING 305
SWIDTH 160 0
DWIDTH 4 0
BBX 2 14 1 0
BITMAP
C0
C0
C0
C0
C0
C0
C0
C0
C0
C0
C0
C0
C0
C0
ENDCHAR
STARTCHAR 0141
ENCODING 321
SWIDTH 280 0
DWIDTH 7 0
BBX 7 18 0 0
BITMAP
60
60
60
60
60
68
68
78
70
E0
E0
E0
60
60
60
60
7E
7E
ENDCHAR
STARTCHAR 0142
ENCODING 322
SWIDTH 160 0
DWIDTH 4 0
BBX 4 18 0 0
BITMAP
60
60
60
60
60
70
70
70
60
E0
E0
E0
60
60
60
60
60
60
ENDCHAR
STARTCHAR 0152
ENCODING 338
SWIDTH 440 0
DWIDTH 11 0
BBX 10 18 1 0
BITMAP
7FC0
FFC0
CE00
CE00
CE00
CE00
CE00
CFC0
CFC0
CE00
CE00
CE00
CE00
CE00
CE00
CE00
FFC0
FFC0
ENDCHAR
STARTCHAR 0153
ENCODING 339
SWIDTH 440 0
DWIDTH 11 0
BBX 9 14 1 0
BITMAP
7F00
DD80
DD80
DD80
DD80
DF80
DF80
DC00
DC00
DD80
DD80
DD80
FF80
FF00
ENDCHAR
STARTCHAR 0160
ENCODING 352
SWIDTH 320 0
DWIDTH 8 0
BBX 7 23 1 0
BITMAP
C4
4C
78
38
00
78
FC
CE
CE
CE
CE
EE
F0
78
38
1C
DE
CE
CE
CE
CE
FC
78
ENDCHAR
STARTCHAR 0161
ENCODING 353
SWIDTH 280 0
DWIDTH 7 0
BBX 7 20 0 0
BITMAP
C6
6C
38
38
38
00
38
7C
EC
EC
6C
70
38
1C
1C
EC
EC
EC
7C
78
ENDCHAR
STARTCHAR 0178
ENCODING 376
SWIDTH 320 0
DWIDTH 8 0
BBX 8 22 0 0
BITMAP
76
76
00
00
E3
E7
67
76
76
76
3E
3C
3C
3C
1C
18
18
18
18
18
18
18
ENDCHAR
STARTCHAR 017D
ENCODING 381
SWIDTH 240 0
DWIDTH 6 0
BBX 6 23 0 0
BITMAP
C4
4C
78
38
00
FC
FC
1C
1C
1C
18
38
38
38
30
30
70
70
70
60
E0
FC
FC
ENDCHAR
STARTCHAR 017E
ENCODING 382
SWIDTH 240 0
DWIDTH 6 0
BBX 6 20 0 0
BITMAP
8C
C8
78
70
00
00
F8
F8
18
38
38
30
30
70
60
60
E0
E0
F8
F8
ENDCHAR
STARTCHAR 0192
ENCODING 402
SWIDTH 320 0
DWIDTH 8 0
BBX 8 21 0 -3
BITMAP
07
0F
0E
0E
0E
0C
3F
3F
1C
1C
18
18
38
38
38
38
30
30
70
F0
E0
ENDCHAR
STARTCHAR 02C6
ENCODING 710
SWIDTH 160 0
DWIDTH 4 0
BBX 6 4 -1 16
BITMAP
70
78
C8
8C
ENDCHAR
STARTCHAR 02C7
ENCODING 711
SWIDTH 160 0
DWIDTH 4 0
BBX 6 4 -1 16
BITMAP
8C
48
78
30
ENDCHAR
STARTCHAR 02D8
ENCODING 728
SWIDTH 160 0
DWIDTH 4 0
BBX 6 4 -1 16
BITMAP
84
84
F8
78
ENDCHAR
STARTCHAR 02D9
ENCODING 729
SWIDTH 160 0
DWIDTH 4 0
BBX 2 2 1 17
BITMAP
C0
C0
ENDCHAR
STARTCHAR 02DA
ENCODING 730
SWIDTH 160 0
DWIDTH 4 0
BBX 4 4 0 16
BITMAP
60
90
90
60
ENDCHAR
STARTCHAR 02DB
ENCODING 731
SWIDTH 160 0
DWIDTH 4 0
BBX 6 5 -1 -5
BITMAP
38
60
C0
E0
7C
ENDCHAR
STARTCHAR 02DC
ENCODING 732
SWIDTH 160 0
DWIDTH 4 0
BBX 6 3 -1 17
BITMAP
04
FC
B8
ENDCHAR
STARTCHAR 02DD
ENCODING 733
SWIDTH 160 0
DWIDTH 4 0
BBX 8 4 -1 16
BITMAP
77
6C
C8
98
ENDCHAR
STARTCHAR 2013
ENCODING 8211
SWIDTH 520 0
DWIDTH 13 0
BBX 13 2 0 7
BITMAP
FFF8
FFF8
ENDCHAR
STARTCHAR 2014
ENCODING 8212
SWIDTH 1000 0
DWIDTH 25 0
BBX 25 2 0 7
BITMAP
FFFFFF80
FFFFFF80
ENDCHAR
STARTCHAR 2018
ENCODING 8216
SWIDTH 160 0
DWIDTH 4 0
BBX 3 5 0 13
BITMAP
E0
60
60
60
20
ENDCHAR
STARTCHAR 2019
ENCODING 8217
SWIDTH 160 0
DWIDTH 4 0
BBX 3 5 1 13
BITMAP
E0
C0
C0
C0
80
ENDCHAR
STARTCHAR 201A
ENCODING 8218
SWIDTH 160 0
DWIDTH 4 0
BBX 3 5 1 -2
BITMAP
E0
C0
C0
C0
80
ENDCHAR
STARTCHAR 201C
ENCODING 8220
SWIDTH 320 0
DWIDTH 8 0
BBX 6 5 1 13
BITMAP
D8
D8
C8
4C
6C
ENDCHAR
STARTCHAR 201D
ENCODING 8221
SWIDTH 320 0
DWIDTH 8 0
BBX 6 5 1 13
BITMAP
6C
6C
CC
D8
D8
ENDCHAR
STARTCHAR 201E
ENCODING 8222
SWIDTH 320 0
DWIDTH 8 0
BBX 6 5 1 -2
BITMAP
6C
6C
CC
D8
D8
ENDCHAR
STARTCHAR 2020
ENCODING 8224
SWIDTH 320 0
DWIDTH 8 0
BBX 8 21 0 -3
BITMAP
18
18
18
18
18
18
FF
FF
18
18
18
18
18
18
18
18
18
18
18
18
18
ENDCHAR
STARTCHAR 2021
ENCODING 8225
SWIDTH 320 0
DWIDTH 8 0
BBX 8 21 0 -3
BITMAP
18
18
18
18
18
FF
FF
18
18
18
18
18
18
18
FF
FF
18
18
18
18
18
ENDCHAR
STARTCHAR 2022
ENCODING 8226
SWIDTH 520 0
DWIDTH 13 0
BBX 9 9 2 4
BITMAP
3E00
7F00
FF00
FF80
FF80
FF00
7F00
7E00
0800
ENDCHAR
STARTCHAR 2026
ENCODING 8230
SWIDTH 1000 0
DWIDTH 25 0
BBX 19 2 3 0
BITMAP
C0E060
C0E060
ENDCHAR
STARTCHAR 2030
ENCODING 8240
SWIDTH 760 0
DWIDTH 19 0
BBX 18 18 1 0
BITMAP
708000
F88000
D90000
D90000
D90000
DB0000
DA0000
DA0000
FFE780
75F7C0
0736C0
0F36C0
0B36C0
0B36C0
1B36C0
1336C0
13E7C0
31E780
ENDCHAR
STARTCHAR 2039
ENCODING 8249
SWIDTH 200 0
DWIDTH 5 0
BBX 3 11 1 2
BITMAP
20
20
60
E0
C0
80
C0
C0
60
60
20
ENDCHAR
STARTCHAR 203A
ENCODING 8250
SWIDTH 200 0
DWIDTH 5 0
BBX 3 11 1 2
BITMAP
80
80
C0
C0
60
60
60
E0
C0
80
80
ENDCHAR
STARTCHAR 2044
ENCODING 8260
SWIDTH 160 0
DWIDTH 4 0
BBX 12 18 -4 0
BITMAP
0010
0020
0060
0040
00C0
0080
0100
0300
0200
0400
0C00
0800
1800
1000
2000
6000
4000
8000
ENDCHAR
STARTCHAR 2122
ENCODING 8482
SWIDTH 1000 0
DWIDTH 25 0
BBX 22 10 1 8
BITMAP
FF9C1C
FF9E1C
1C1E3C
1C1E3C
1C1B3C
1C1B6C
1C1B6C
1C19EC
1C19CC
1C18CC
ENDCHAR
STARTCHAR 2212
ENCODING 8722
SWIDTH 520 0
DWIDTH 13 0
BBX 12 2 0 6
BITMAP
FFF0
FFF0
ENDCHAR
STARTCHAR 2219
ENCODING 8729
SWIDTH 160 0
DWIDTH 4 0
BBX 2 2 1 6
BITMAP
C0
C0
ENDCHAR
STARTCHAR F001
ENCODING 61441
SWIDTH 320 0
DWIDTH 8 0
BBX 7 18 0 0
BITMAP
76
76
60
76
F6
66
66
66
66
66
66
66
66
66
66
66
66
66
ENDCHAR
STARTCHAR F002
ENCODING 61442
SWIDTH 320 0
DWIDTH 8 0
BBX 7 18 0 0
BITMAP
36
76
66
66
F6
F6
66
66
66
66
66
66
66
66
66
66
66
66
ENDCHAR
ENDFONT
